<svg data-v-423bf9ae="" xmlns="http://www.w3.org/2000/svg" viewBox="0 0 642 90" class="iconLeft"><!----><!----><!----><g data-v-423bf9ae="" id="4d8df4ce-dc66-4a67-9094-e0f31879f4e6" fill="#000000" transform="matrix(5.071851258406724,0,0,5.071851258406724,105.7628588076879,10.029585193186364)"><path d="M7.52 1.05L0.84 1.05L0.84 12.60L3.47 12.60L3.47 7.97L7.21 7.97L7.21 5.66L3.47 5.66L3.47 3.36L7.52 3.36ZM10.05 0.98C9.24 0.98 8.58 1.64 8.58 2.45C8.58 3.26 9.24 3.92 10.05 3.92C10.86 3.92 11.52 3.26 11.52 2.45C11.52 1.64 10.86 0.98 10.05 0.98ZM8.78 5.42L11.26 5.42L11.26 12.60L8.78 12.60ZM13.43 5.42L12.39 5.42L12.39 7.31L13.43 7.31L13.43 10.07C13.43 11.34 13.90 12.81 15.88 12.81C16.90 12.81 17.70 12.36 17.70 12.36L17.08 10.36C17.08 10.36 16.79 10.58 16.46 10.58C16.07 10.58 15.90 10.26 15.90 9.59L15.90 7.31L17.42 7.31L17.42 5.42L15.90 5.42L15.90 2.74L13.43 2.74ZM18.54 12.60L21.01 12.60L21.01 8.54C21.01 7.83 21.74 7.14 22.48 7.14C23.28 7.14 23.77 7.83 23.77 8.54L23.77 12.60L26.25 12.60L26.25 7.87C26.25 5.87 24.42 5.21 23.10 5.21C22.32 5.21 21.60 5.61 21.04 6.17L21.01 6.17L21.01 5.42L18.54 5.42ZM35.06 9.35C35.07 9.27 35.07 9.11 35.07 9.02C35.07 6.50 33.40 5.21 31.22 5.21C29.05 5.21 27.27 6.92 27.27 9.02C27.27 11.10 29.05 12.81 31.22 12.81C32.82 12.81 34.13 12.29 34.94 10.93L33.15 10.04C32.55 10.68 32.20 10.84 31.40 10.84C30.77 10.84 29.85 10.46 29.85 9.35ZM29.92 7.98C29.96 7.32 30.44 6.82 31.29 6.82C32.02 6.82 32.54 7.22 32.65 7.98ZM39.30 5.21C37.41 5.21 36.16 6.05 36.16 7.52C36.16 8.60 36.89 9.10 37.62 9.48C38.43 9.90 39.21 9.94 39.21 10.46C39.21 10.93 38.79 10.98 38.44 10.98C37.65 10.98 36.67 10.15 36.67 10.15L35.66 11.84C35.66 11.84 36.69 12.81 38.43 12.81C39.90 12.81 41.83 12.47 41.83 10.36C41.83 8.89 40.60 8.36 39.65 8.06C39.03 7.87 38.53 7.76 38.53 7.38C38.53 7.04 38.75 6.94 39.30 6.94C40.05 6.94 40.89 7.39 40.89 7.39L41.71 5.77C41.71 5.77 40.68 5.21 39.30 5.21ZM46.19 5.21C44.30 5.21 43.05 6.05 43.05 7.52C43.05 8.60 43.78 9.10 44.51 9.48C45.32 9.90 46.10 9.94 46.10 10.46C46.10 10.93 45.68 10.98 45.33 10.98C44.53 10.98 43.55 10.15 43.55 10.15L42.55 11.84C42.55 11.84 43.58 12.81 45.32 12.81C46.79 12.81 48.72 12.47 48.72 10.36C48.72 8.89 47.49 8.36 46.54 8.06C45.92 7.87 45.42 7.76 45.42 7.38C45.42 7.04 45.64 6.94 46.19 6.94C46.94 6.94 47.78 7.39 47.78 7.39L48.59 5.77C48.59 5.77 47.57 5.21 46.19 5.21ZM63.32 12.60L65.95 12.60L64.92 1.05L62.12 1.05L59.56 7.71L56.99 1.05L54.19 1.05L53.16 12.60L55.79 12.60L56.34 5.75L56.41 5.75L58.77 12.53L60.34 12.53L62.71 5.75L62.78 5.75ZM74.28 9.35C74.30 9.27 74.30 9.11 74.30 9.02C74.30 6.50 72.63 5.21 70.45 5.21C68.28 5.21 66.50 6.92 66.50 9.02C66.50 11.10 68.28 12.81 70.45 12.81C72.04 12.81 73.36 12.29 74.17 10.93L72.38 10.04C71.78 10.68 71.43 10.84 70.63 10.84C70 10.84 69.08 10.46 69.08 9.35ZM69.15 7.98C69.19 7.32 69.66 6.82 70.52 6.82C71.25 6.82 71.76 7.22 71.88 7.98ZM75.43 12.60L77.91 12.60L77.91 8.54C77.91 7.83 78.64 7.14 79.38 7.14C80.18 7.14 80.67 7.83 80.67 8.54L80.67 12.60L83.15 12.60L83.15 7.87C83.15 5.87 81.31 5.21 80.00 5.21C79.21 5.21 78.50 5.61 77.94 6.17L77.91 6.17L77.91 5.42L75.43 5.42ZM85.02 5.42L83.99 5.42L83.99 7.31L85.02 7.31L85.02 10.07C85.02 11.34 85.50 12.81 87.47 12.81C88.49 12.81 89.29 12.36 89.29 12.36L88.68 10.36C88.68 10.36 88.38 10.58 88.06 10.58C87.67 10.58 87.50 10.26 87.50 9.59L87.50 7.31L89.01 7.31L89.01 5.42L87.50 5.42L87.50 2.74L85.02 2.74ZM89.61 9.02C89.61 11.23 91.35 12.81 93.94 12.81C96.42 12.81 98.22 11.23 98.22 9.02C98.22 6.78 96.32 5.21 93.94 5.21C91.52 5.21 89.61 6.78 89.61 9.02ZM92.25 9.02C92.25 8.02 92.99 7.32 93.93 7.32C94.85 7.32 95.59 8.02 95.59 9.02C95.59 10.00 94.89 10.70 93.93 10.70C92.92 10.70 92.25 10.00 92.25 9.02ZM99.36 12.60L101.84 12.60L101.84 8.82C101.84 8.64 102.02 7.36 103.31 7.36C104.13 7.36 104.59 7.76 104.59 7.76L105.63 5.66C105.63 5.66 104.99 5.21 104.06 5.21C102.65 5.21 101.86 6.45 101.86 6.45L101.84 6.45L101.84 5.42L99.36 5.42Z"></path></g><defs data-v-423bf9ae=""><linearGradient data-v-423bf9ae="" gradientTransform="rotate(25)" id="0104a8ac-f54d-4d59-94e9-b464d86981a3" x1="0%" y1="0%" x2="100%" y2="0%"><stop data-v-423bf9ae="" offset="0%" style="stop-color: rgb(140, 72, 210); stop-opacity: 1;"></stop><stop data-v-423bf9ae="" offset="100%" style="stop-color: rgb(207, 112, 90); stop-opacity: 1;"></stop></linearGradient></defs><g data-v-423bf9ae="" id="cf0044de-e97b-4467-80d8-97a5abe766f5" transform="matrix(1.1582372887746277,0,0,1.1582372887746277,-12.906152762618895,-12.836005179756185)" stroke="none" fill="url(#0104a8ac-f54d-4d59-94e9-b464d86981a3)"><path d="M28.91 79.91l-7.54-7.54a5.67 5.67 0 0 0-8 8l7.54 7.54a5.67 5.67 0 0 0 8-8zM18.19 51.28a5.67 5.67 0 0 0 0 8L42 83.1a5.67 5.67 0 1 0 8-8L26.2 51.28a5.67 5.67 0 0 0-8.01 0z"></path><rect x="39.83" y="44.79" width="22" height="11.33" rx="2" ry="2" transform="rotate(-45 50.83 50.456)"></rect><path d="M80.76 13a5.67 5.67 0 0 0-8 8l7.54 7.54a5.67 5.67 0 0 0 8-8zM59.66 17.81a5.67 5.67 0 0 0-8 8l23.8 23.82a5.67 5.67 0 0 0 8-8z"></path></g><!----></svg>