<svg data-v-fde0c5aa="" xmlns="http://www.w3.org/2000/svg" viewBox="0 0 300 300" class="icon"><!----><defs data-v-fde0c5aa=""><!----></defs><rect data-v-fde0c5aa="" fill="transparent" x="0" y="0" width="300px" height="300px" class="logo-background-square"></rect><!----><defs data-v-fde0c5aa=""><linearGradient data-v-fde0c5aa="" gradientTransform="rotate(25)" id="3f56c857-fd47-4f8e-afbd-edddf9023d37" x1="0%" y1="0%" x2="100%" y2="0%"><stop data-v-fde0c5aa="" offset="0%" stop-color="#8C48D2" stop-opacity="1"></stop><stop data-v-fde0c5aa="" offset="100%" stop-color="#CF705A" stop-opacity="1"></stop></linearGradient></defs><g data-v-fde0c5aa="" id="984ecc54-bd34-4bda-8fa7-85447ab70dc0" fill="url(#3f56c857-fd47-4f8e-afbd-edddf9023d37)" stroke="none" transform="matrix(2.830516902999191,0,0,2.830516902999191,6.110665029886661,7.186261776953309)"><path d="M28.91 79.91l-7.54-7.54a5.67 5.67 0 0 0-8 8l7.54 7.54a5.67 5.67 0 0 0 8-8zM18.19 51.28a5.67 5.67 0 0 0 0 8L42 83.1a5.67 5.67 0 1 0 8-8L26.2 51.28a5.67 5.67 0 0 0-8.01 0z"></path><rect x="39.83" y="44.79" width="22" height="11.33" rx="2" ry="2" transform="rotate(-45 50.83 50.456)"></rect><path d="M80.76 13a5.67 5.67 0 0 0-8 8l7.54 7.54a5.67 5.67 0 0 0 8-8zM59.66 17.81a5.67 5.67 0 0 0-8 8l23.8 23.82a5.67 5.67 0 0 0 8-8z"></path></g><!----></svg>