<svg data-v-423bf9ae="" xmlns="http://www.w3.org/2000/svg" viewBox="0 0 60.01547002726401 60" class="icon"><!----><!----><!----><!----><g data-v-423bf9ae="" id="d6f6d3b7-2662-4ab1-ab62-3ba4dd01814b" transform="matrix(0.7721581925164185,0,0,0.7721581925164185,-9.244929656483883,-8.959242799992893)" stroke="none" fill="white"><path d="M28.91 79.91l-7.54-7.54a5.67 5.67 0 0 0-8 8l7.54 7.54a5.67 5.67 0 0 0 8-8zM18.19 51.28a5.67 5.67 0 0 0 0 8L42 83.1a5.67 5.67 0 1 0 8-8L26.2 51.28a5.67 5.67 0 0 0-8.01 0z"></path><rect x="39.83" y="44.79" width="22" height="11.33" rx="2" ry="2" transform="rotate(-45 50.83 50.456)"></rect><path d="M80.76 13a5.67 5.67 0 0 0-8 8l7.54 7.54a5.67 5.67 0 0 0 8-8zM59.66 17.81a5.67 5.67 0 0 0-8 8l23.8 23.82a5.67 5.67 0 0 0 8-8z"></path></g><!----></svg>